# xmcd CD database file generated by OrangeCD 6.2
#
# Track frame offsets:
#	150
#	24460
#	43307
#	57400
#	75938
#	91509
#	106673
#	131360
#	149538
#	163126
#	179952
#	197309
#	213704
#	233855
#	252158
#	264632
#	281185
#	294332
#	308388
#	322935
#	339536
#
# Disc length: 4737 seconds
#
# Revision: 1
# Processed by: cddbd v1.5.2PL0 Copyright (c) Steve Scherf et al.
# Submitted via: OrangeCD 6.2
#
DISCID=2c127f15
DTITLE=Various Artist - Antologia Polskiego Bluesa
DYEAR=2008
DGENRE=Blues
TTITLE0=Green Grass - Pociag Widmo
TTITLE1=Dudek Symphonic - Kameralny Blues
TTITLE2=Gang Olsena - Biale myszy, dzikie koty
TTITLE3=Jacek Spruch and The Old Time Blues - The Row
TTITLE4=Grzegorz Kapoka Trio - For John Lee
TTITLE5=Boogie Boys - Boogie-woogie cala noc
TTITLE6=Tadeusz Pocieszynski and The Bluesmobile - Pojedynczy czlowiek
TTITLE7=Krakowska Grupa Bluesowa - Jak zwal tak zwal
TTITLE8=Bartek Leczycki - Meisterklasse Boogie
TTITLE9=Kasa Chorych - Puls
TTITLE10=Jaromi - Gdy zaplaca mnie pieniazki
TTITLE11=Wierzcholski/ Karolak - Piatek Wieczorem
TTITLE12=Bogdan Szweda and Easy Rider - La Femme Defendue
TTITLE13=Doctor Blues - No Matter How She Done It
TTITLE14=Adam Kulisz - Boogieman
TTITLE15=Limbo - Milkcow's Calf Blues
TTITLE16=Tortilla - Miasto plonie
TTITLE17=Pawel Szymanski - Za pozno by plakac
TTITLE18=Banaszak and The Best - Mam czas
TTITLE19=Teksasy - O tak musi byc
TTITLE20=Slawek Wierzcholski - Przejsciowy stan
EXTD=
EXTT0=
EXTT1=
EXTT2=
EXTT3=
EXTT4=
EXTT5=
EXTT6=
EXTT7=
EXTT8=
EXTT9=
EXTT10=
EXTT11=
EXTT12=
EXTT13=
EXTT14=
EXTT15=
EXTT16=
EXTT17=
EXTT18=
EXTT19=
EXTT20=
PLAYORDER=
